<svg xmlns="http://www.w3.org/2000/svg" xmlns:xlink="http://www.w3.org/1999/xlink" width="167.24" height="187.847" viewBox="0 0 167.24 187.847">
  <defs>
    <linearGradient id="linear-gradient" y1="0.5" x2="1" y2="0.5" gradientUnits="objectBoundingBox">
      <stop offset="0" stop-color="#fbbc05"/>
      <stop offset="1" stop-color="#ea4335"/>
    </linearGradient>
    <linearGradient id="linear-gradient-3" x1="0.5" y1="-0.79" x2="0.5" y2="1.979" xlink:href="#linear-gradient"/>
    <linearGradient id="linear-gradient-6" x1="0.5" y1="-0.745" x2="0.5" y2="1.804" xlink:href="#linear-gradient"/>
  </defs>
  <g id="Group_58" data-name="Group 58" transform="translate(-540.76 -70.815)">
    <g id="Group_56" data-name="Group 56" transform="translate(557.57 70.815)">
      <g id="Group_52" data-name="Group 52" transform="translate(0 50.091)">
        <g id="Group_51" data-name="Group 51" transform="translate(0 0)">
          <path id="Path_25" data-name="Path 25" d="M685.258,395.782a10.672,10.672,0,0,1-10.672-10.672c0-21.561-7.731-37.9-22.977-48.557a61.4,61.4,0,0,0-22.964-9.825,10.672,10.672,0,1,1,3.089-21.12,82.493,82.493,0,0,1,32.1,13.451,73.027,73.027,0,0,1,21.42,23.145,73.029,73.029,0,0,1,21.419-23.145,82.5,82.5,0,0,1,32.1-13.451,10.674,10.674,0,1,1,3,21.136A62.14,62.14,0,0,0,718.275,337c-14.827,10.669-22.344,26.855-22.344,48.108A10.672,10.672,0,0,1,685.258,395.782Z" transform="translate(-619.516 -305.494)" fill="url(#linear-gradient)"/>
        </g>
      </g>
      <g id="Group_55" data-name="Group 55" transform="translate(0.044)">
        <g id="Group_54" data-name="Group 54">
          <g id="Group_53" data-name="Group 53">
            <path id="Path_26" data-name="Path 26" d="M651.862,429.494a53.707,53.707,0,0,1,7.558,6.365l-19.165,46.258a10.672,10.672,0,0,1-19.718-8.171l20.845-50.311A61.332,61.332,0,0,1,651.862,429.494Z" transform="translate(-619.722 -348.328)" fill="#4285f4"/>
            <path id="Path_27" data-name="Path 27" d="M831.633,126.3a82.725,82.725,0,0,0-14.787,8.184q-1.857,1.3-3.763,2.807L795.569,95.026l-17.583,42.439q-2.011-1.607-3.979-2.977a82.642,82.642,0,0,0-14.544-8.079l18.03-43.517a19.569,19.569,0,0,1,36.155,0Z" transform="translate(-729.636 -70.815)" fill="#4285f4"/>
            <path id="Path_28" data-name="Path 28" d="M1084.338,487.513a10.663,10.663,0,0,1-13.944-5.773l-19.251-46.463a53.413,53.413,0,0,1,6.721-5.712,61.1,61.1,0,0,1,11.362-6.41l20.886,50.413A10.672,10.672,0,0,1,1084.338,487.513Z" transform="translate(-959.059 -347.95)" fill="#4285f4"/>
          </g>
        </g>
        <path id="Path_29" data-name="Path 29" d="M747.892,342.331l-8.651,20.881a53.713,53.713,0,0,0-7.558-6.365,61.331,61.331,0,0,0-10.48-5.859l8.166-19.714a82.644,82.644,0,0,1,14.544,8.079Q745.876,340.727,747.892,342.331Z" transform="translate(-699.542 -275.681)" fill="#2362d6" opacity="0.4"/>
        <path id="Path_30" data-name="Path 30" d="M1037.394,350.5a61.1,61.1,0,0,0-11.362,6.41,53.408,53.408,0,0,0-6.721,5.712l-8.638-20.847q1.9-1.511,3.763-2.807a82.73,82.73,0,0,1,14.787-8.184Z" transform="translate(-927.227 -275.296)" fill="#2362d6" opacity="0.4"/>
      </g>
    </g>
    <g id="Group_57" data-name="Group 57" transform="translate(540.76 223.22)">
      <path id="Path_31" data-name="Path 31" d="M692.157,834.97c-.038.041-.075.081-.107.122h.184Z" transform="translate(-659.758 -824.27)" fill="url(#linear-gradient)"/>
      <path id="Path_32" data-name="Path 32" d="M619.156,793.869h-1.537q.064-.832.064-1.6a7.776,7.776,0,0,0-1.345-4.963,5.439,5.439,0,0,0-3.49-2.256,26.469,26.469,0,0,0-2.689-.209,19.383,19.383,0,0,0-4.322.512,43.7,43.7,0,0,0-5.827,1.761l1.345.961h.832a6.158,6.158,0,0,1,3.234.929q2.145,1.377,2.273,4.867H591.237v.9a3.7,3.7,0,0,0-.864-.655,1.67,1.67,0,0,0-.736-.241h-4.931v3.938a8.115,8.115,0,0,0-7.076-4.13,6.093,6.093,0,0,0-4.081,1.49c-.09.077-.177.158-.26.241l-.961-1.539h-4.963l.032.032v.832a5.733,5.733,0,0,0-3.17-.864H540.76l1.121,1.793H560.9v9.014a5.53,5.53,0,0,0-1.185-.867,7.607,7.607,0,0,0-1.217-3.9,8.347,8.347,0,0,0-3.362-2.935,7.967,7.967,0,0,0-3.49-.8,8.581,8.581,0,0,0-1.281.1,5.194,5.194,0,0,0-3.65,2.1,5.839,5.839,0,0,0-1.042,2.689q-.048,1.1-.047,1.552a8.819,8.819,0,0,0,.128,1.7A2.977,2.977,0,0,0,547,806.771a5.2,5.2,0,0,0,3.27.864,4.661,4.661,0,0,0,3.14-.858,2.717,2.717,0,0,0,.961-2.1,2.219,2.219,0,0,0-1.441-2.322,2.768,2.768,0,0,0-.865-.16,2.181,2.181,0,0,0-1.891,1.178,1.832,1.832,0,0,0-.288.954,1.934,1.934,0,0,0,.128.668,1.822,1.822,0,0,0,1.059,1.082l-.258.192a2.449,2.449,0,0,1-.771.224.818.818,0,0,1-.546-.192q-.416-.32-.416-2.5v-.61q.221-2.4,1.552-2.869a6.772,6.772,0,0,1,1.906-.465,3.478,3.478,0,0,1,2.529,1.249,5.931,5.931,0,0,1,1.153,2.529,4.268,4.268,0,0,1,.1.9,4.848,4.848,0,0,1-1.089,3.01,6.962,6.962,0,0,1-4.386,2.4,6.839,6.839,0,0,1-.961.064,9.827,9.827,0,0,1-3.266-.638,9.037,9.037,0,0,1-3.938-2.749l.064,1.695.833.7a10.869,10.869,0,0,0,2.416,1.5,11.391,11.391,0,0,0,3.859.99c.467.043.928.064,1.377.064a11.74,11.74,0,0,0,3.65-.574,6.922,6.922,0,0,0,3.874-3.261,9.167,9.167,0,0,0,.7-1.693,5.776,5.776,0,0,1,1.441,3.643v3.135l3.33.958V795.662h1.121q1.854,0,2.049,2.017v15.144l3.33.961V795.662h2.324a7.66,7.66,0,0,0-1.665,4.194l2.946,1.569.48-.352a8.78,8.78,0,0,1,1.249-.736,6.13,6.13,0,0,1,1.633-.544l.352-.032a2.61,2.61,0,0,1,1.057.224q.672.32.768.7a2.631,2.631,0,0,1,.1.544q0,1.089-1.857,2.369a17.225,17.225,0,0,1-2.913,1.569l-.544.256,2.177.992q2.113,1.024,2.177,1.024l.7-.544a10.564,10.564,0,0,0,1.441-1.473,6.93,6.93,0,0,0,1.185-2.081,5.953,5.953,0,0,0,.192-1.441,3.406,3.406,0,0,0-.961-2.465,4.877,4.877,0,0,0-2.978-1.6l-.8-.032a6.751,6.751,0,0,0-2.209.352,4.366,4.366,0,0,1,3.586-1.825,5.157,5.157,0,0,1,2.578.721,5.891,5.891,0,0,1,2.113,2.113,6.306,6.306,0,0,1,.847,3.345v10.309l3.33.961V795.662h1.793a1.085,1.085,0,0,1,1.074.672,3.667,3.667,0,0,1,.335,1.345v15.144l3.33.961V795.662h2.753l-.96.961,3.234.736a1.707,1.707,0,0,1,.993.593,1.824,1.824,0,0,1,.416,1.1v1.153a6.184,6.184,0,0,0-3.874,4.418,3.226,3.226,0,0,0-.16.961q0,2.689,4.194,3.842a8.434,8.434,0,0,0,1.7.192,3.564,3.564,0,0,0,1.6-.32,2.351,2.351,0,0,0,1.377-2.241,2.007,2.007,0,0,0-1.025-1.793,2.822,2.822,0,0,0-1.377-.416,2.207,2.207,0,0,0-1.5.64,1.61,1.61,0,0,0-.48,1.185,1.7,1.7,0,0,0,.845,1.441l-.288.1a1.987,1.987,0,0,1-.384.032,2.466,2.466,0,0,1-.448-.047.822.822,0,0,1-.64-.786l.032-.448a5.551,5.551,0,0,1,1.456-3.65,3.264,3.264,0,0,1,1.838-.961,2.282,2.282,0,0,1,1.646.818,8.19,8.19,0,0,1,1.39,2.032,8.779,8.779,0,0,1,.8,2.978v4.642l3.33.961V795.662h3.2v17.161l3.33.961V795.662h2.721Zm-11.462,9.381a6.8,6.8,0,0,0-3.362-3.138v-.7a3.545,3.545,0,0,0-.751-2.224,3.733,3.733,0,0,0-2-1.33l-.7-.192h6.82Zm6.531-9.381H610.8a9.486,9.486,0,0,0-.448-2.48,5.173,5.173,0,0,0-1.761-2.465,8.282,8.282,0,0,0-4.13-1.49,17.929,17.929,0,0,1,2.753-.224,15.274,15.274,0,0,1,2.017.128q4.995.7,4.995,6.243Z" transform="translate(-540.76 -784.84)" fill="url(#linear-gradient-3)"/>
      <path id="Path_33" data-name="Path 33" d="M692.157,834.97c-.038.041-.075.081-.107.122h.184Z" transform="translate(-659.758 -824.27)" fill="url(#linear-gradient)"/>
      <path id="Path_34" data-name="Path 34" d="M1165.97,793.771h-5.475l8.74-6.98h2.594Z" transform="translate(-1028.216 -786.375)" fill="url(#linear-gradient)"/>
      <path id="Path_35" data-name="Path 35" d="M1022.376,815.384a12.319,12.319,0,0,0-1.825-1.778,2.971,2.971,0,0,0-1.983-.736,4.973,4.973,0,0,0-3.332,1.729q-1.537,1.569-1.569,2.29c-.021.48-.032.751-.032.815a2.572,2.572,0,0,0,.849,1.97,2.508,2.508,0,0,0,1.682.783,1.987,1.987,0,0,0,.894-.224,2.114,2.114,0,0,0,1.347-1.953,2.091,2.091,0,0,0-1.12-1.985,1.923,1.923,0,0,0-.8-.192,1.763,1.763,0,0,0-.739.16c.043-.213.07-.335.081-.367s.036-.107.079-.224a1.263,1.263,0,0,1,.305-.416.8.8,0,0,1,.593-.241q.573,0,2.367,1.857v.032a3.271,3.271,0,0,1,.9,2.369,5.364,5.364,0,0,1-1.022,3.106,4.814,4.814,0,0,1-3.94,1.633,4.892,4.892,0,0,1-1.12-.128q-1.249-.288-1.249-1.089V809.348h13.415l-1.121-1.793h-2.3a6.475,6.475,0,0,0-1.091-2.8,4.516,4.516,0,0,0-2.8-2.049,12.452,12.452,0,0,0-2.963-.465,23.949,23.949,0,0,0-5.953.943l-.514,1.394.928-.224a16.159,16.159,0,0,1,1.857-.335,13.031,13.031,0,0,1,1.473-.113,10.73,10.73,0,0,1,1.633.128,3.433,3.433,0,0,1,3.3,3.522h-38.13l.021.032H969.378l-.019-.032h-4.931v.9a3.7,3.7,0,0,0-.864-.655,1.67,1.67,0,0,0-.736-.241H945.25l1.121,1.793h1.153l-.96.961,3.234.736a1.708,1.708,0,0,1,.993.593,1.824,1.824,0,0,1,.416,1.1v1.153a6.185,6.185,0,0,0-3.874,4.418,3.229,3.229,0,0,0-.16.96q0,2.689,4.194,3.842a8.433,8.433,0,0,0,1.7.192,3.565,3.565,0,0,0,1.6-.32,2.351,2.351,0,0,0,1.377-2.241,2.007,2.007,0,0,0-1.024-1.793,2.823,2.823,0,0,0-1.377-.416,2.207,2.207,0,0,0-1.5.64,1.61,1.61,0,0,0-.48,1.185,1.7,1.7,0,0,0,.845,1.441l-.288.1a2,2,0,0,1-.384.032,2.464,2.464,0,0,1-.448-.047.822.822,0,0,1-.64-.786l.032-.448a5.552,5.552,0,0,1,1.456-3.65,3.253,3.253,0,0,1,1.838-.961,2.288,2.288,0,0,1,1.646.818,8.245,8.245,0,0,1,1.39,2.032,8.827,8.827,0,0,1,.8,2.978v4.642l3.33.96V809.348h1.793a1.082,1.082,0,0,1,1.071.672,3.672,3.672,0,0,1,.337,1.345v15.144l3.33.96V809.348h1.582l.019.032h6.98a29.14,29.14,0,0,0-3.123,3.81,18.144,18.144,0,0,0-2.7,5.731,10.1,10.1,0,0,0-.352,2.625,9.909,9.909,0,0,0,.256,2.241,10.1,10.1,0,0,0,2.882,4.867,13.451,13.451,0,0,0,3.81,2.625q.832.416,1.7.768a36,36,0,0,0,4.849,1.441,22.914,22.914,0,0,0,2.8.48l1.153-.928-1.089-.128a20.518,20.518,0,0,1-2.771-.576,19.728,19.728,0,0,1-3.473-1.313,11.8,11.8,0,0,1-2.818-1.889,7.771,7.771,0,0,1-2.5-3.345,9.275,9.275,0,0,1-.64-2.963,12.2,12.2,0,0,1,1.12-4.738q1.633-3.746,6.916-8.708h.865v17.129l3.33.96,8.529-3.458q2.1-.993,2.292-2.209a13.776,13.776,0,0,0,.192-1.537,3.945,3.945,0,0,0-1.5-3.042l-9.552-7.684.041-.192h22.858v5.15a15.524,15.524,0,0,0-2.305-2.557,7.5,7.5,0,0,0-3.138-1.776,2.268,2.268,0,0,0-2.527.975,13.818,13.818,0,0,0-1.379,2.706,12.84,12.84,0,0,0-.862,2.864q-.323,2.978,4.128,4.194a4.966,4.966,0,0,0,3.3-.111,2.438,2.438,0,0,0,1.379-1.746,2.11,2.11,0,0,0-.995-2.273,2.292,2.292,0,0,0-2.913.224,1.51,1.51,0,0,0-.448,1.377,1.876,1.876,0,0,0,.8,1.249c-.107.021-.2.043-.271.064s-.156.043-.241.064a1.592,1.592,0,0,1-.544-.032.832.832,0,0,1-.51-.3.82.82,0,0,1-.194-.529,2.674,2.674,0,0,1,.034-.416,11.1,11.1,0,0,1,1.631-4.386,1.612,1.612,0,0,1,1.106-.719,1.576,1.576,0,0,1,1.266.335,10.429,10.429,0,0,1,1.921,2.145,8.289,8.289,0,0,1,.766,1.59v7.695q0,1.857,3.97,1.857a22.331,22.331,0,0,0,3.283-.239,15.188,15.188,0,0,0,2.64-.593,7.282,7.282,0,0,0,3.874-2.882,6.584,6.584,0,0,0,1.089-3.394,4.735,4.735,0,0,0-.128-1.089A8.16,8.16,0,0,0,1022.376,815.384ZM957.9,816.936a6.815,6.815,0,0,0-3.362-3.138v-.7a3.547,3.547,0,0,0-.753-2.224,3.728,3.728,0,0,0-2-1.33l-.7-.192h6.82Zm34.8,1.889a1.388,1.388,0,0,1-.38,2.337l-5.765,2.369-.041-9.989Z" transform="translate(-858.914 -798.526)" fill="url(#linear-gradient-6)"/>
    </g>
  </g>
</svg>
